<svg xmlns="http://www.w3.org/2000/svg" viewBox="0 0 380.07 309.84"><defs><style>.cls-1{fill:none;stroke:#6cf;stroke-linecap:round;stroke-linejoin:round;stroke-width:8px;}</style></defs><title>gift_cards</title><g id="Слой_2" data-name="Слой 2"><g id="Слой_1-2" data-name="Слой 1"><path class="cls-1" d="M115.25,174.13c-45.55,17.74-84.34-7.95-63.81-35.86,9.51-12.94,35.34-14.93,48.87,3.32,11.29,15.22,15.22,28.19,19.53,32.31L190,241.11m-69.45-67c45.55,17.74,84.34-7.95,63.81-35.86-9.51-12.94-35.34-14.93-48.87,3.32-11.29,15.22-15.22,28.19-19.53,32.31L45.8,241.11M103.58,76.73v38.1m28.64-38.1v35.91M103.58,219.57v86.27m28.64-86.27v86.27m46.09-105.62H340.2M210,171.58H340.2M185.58,271.72H315.76M48.61,200.22H4m22-28.64H4"/><path class="cls-1" d="M36.48,69.68V23.4A19.46,19.46,0,0,1,55.88,4H356.67a19.46,19.46,0,0,1,19.4,19.4V220.14a19.46,19.46,0,0,1-19.4,19.4H345.33"/><path class="cls-1" d="M23.4,71.29H324.18a19.46,19.46,0,0,1,19.4,19.4V286.43a19.46,19.46,0,0,1-19.4,19.4H23.4A19.46,19.46,0,0,1,4,286.43V90.7a19.46,19.46,0,0,1,19.4-19.4Z"/></g></g></svg>
