<svg xmlns="http://www.w3.org/2000/svg" viewBox="0 0 258.1 287.83"><defs><style>.cls-1{fill:none;stroke:#6cf;stroke-linecap:round;stroke-linejoin:round;stroke-width:7px;}</style></defs><title>private_dining</title><g id="Слой_2" data-name="Слой 2"><g id="Слой_1-2" data-name="Слой 1"><path class="cls-1" d="M141.62,91,144.71,3.5H250l4.54,137.68c1,25.66-25.75,46.69-57.2,46.69h0c-10.61,0-13.69-.39-22.35-4.56M229.59,85.5l2.14,53.18c.43,7.25-3.64,13.86-9.5,18.64a36.19,36.19,0,0,1-22.84,7.76h0m52.33-117H143M249.46,284.33H145.27m52.1-96.46v93.45"/><path class="cls-1" d="M73.61,199.38a49.91,49.91,0,0,1-22.73,5.08h0c-26,0-48.18-17.41-47.36-38.66l3.76-114h87.2l1.61,39.7M73.56,119.71l1.77,44c.35,6-3,11.47-7.86,15.43a30,30,0,0,1-18.91,6.42h0M94.89,88.71h-89M94,284.33H7.74m43.14-79.86v77.37"/><path class="cls-1" d="M91,108.69h65.87l2.84,86.11c.61,16-16.11,29.2-35.77,29.2h0c-19.67,0-36.39-13.15-35.78-29.2L91,108.69ZM144,160l1.34,33.26c.27,4.53-2.28,8.67-5.94,11.66a22.63,22.63,0,0,1-14.28,4.85h0m32.73-73.18h-68m66.57,147.77H91.3M123.89,224v58.45"/></g></g></svg>
