<svg xmlns="http://www.w3.org/2000/svg" viewBox="0 0 317.89 137.2"><defs><style>.cls-1{fill:none;stroke:#6cf;stroke-linecap:round;stroke-linejoin:round;stroke-width:9.75px;}</style></defs><title>squid_1</title><g id="Слой_2" data-name="Слой 2"><g id="Слой_1-2" data-name="Слой 1"><path class="cls-1" d="M235,35.6l18.45-25.9c4.58-6.43,12.36-6.39,17-.09l35.18,47.56c4.66,6.31,4.63,16.67-.06,23l-35,47.38c-4.7,6.36-12.26,6.31-17,.09l-17.23-22.47M304.9,75.33c-47.58,33.95-59.67,25.38-125.93,25.38-6.32,0-13.79-5.18-13.79-11.49V48c0-6.32,7.47-11.5,13.79-11.49,66.17,0,78.3-8.54,125.74,25.24,11,7.82,11.09,5.81.19,13.59ZM163.42,31.08c1.82,7.65-5.58,16-16.53,18.57s-21.31-1.47-23.13-9.12,5.58-16,16.53-18.57,21.31,1.47,23.13,9.12ZM144.53,29c.53,2.23-1.63,4.66-4.83,5.43s-6.23-.43-6.76-2.66,1.63-4.66,4.83-5.43,6.23.43,6.76,2.66Zm18.9,77.16c1.82-7.65-5.58-16-16.53-18.57S125.59,89,123.76,96.67s5.58,16,16.53,18.57,21.31-1.47,23.13-9.12Zm-18.9,2.12c.53-2.23-1.63-4.66-4.83-5.43s-6.23.43-6.76,2.66,1.63,4.66,4.83,5.43,6.23-.43,6.76-2.66ZM120.75,32.92c-15.38,0-52.28-33-76-16.12l-.75,0m76.74,86.42c-15.38,0-52.28,33-76,16.12l-.75,0m74.19-64C75.64,29.21,39.5,62.9,22.09,37.72l-.88-.29m89.25,34.16c-51.14-12-62.69,2.85-105.59-2.73m97.75,20.7c-38,12.89-63.51-10.52-80.92,14.66l-.87.29"/></g></g></svg>
